<svg xmlns="http://www.w3.org/2000/svg" xmlns:xlink="http://www.w3.org/1999/xlink" aria-hidden="true" focusable="false" width="1em" height="1em" preserveAspectRatio="xMidYMid meet" viewBox="0 0 24 24" class="iconify h1" data-icon="uil:laptop-cloud" data-inline="false" style="transform: rotate(360deg);"><path d="M4.5 10H10a3 3 0 0 0 1.07-5.8a4 4 0 0 0-7.48 1A2.5 2.5 0 0 0 4.5 10zm0-3a1 1 0 0 0 1-1a2 2 0 0 1 3.89-.64a1 1 0 0 0 .78.66A1 1 0 0 1 11 7a1 1 0 0 1-1 1H4.5a.5.5 0 0 1 0-1zM21 16h-1V9a3 3 0 0 0-3-3h-1a1 1 0 0 0 0 2h1a1 1 0 0 1 1 1v7H6v-3a1 1 0 0 0-2 0v3H3a1 1 0 0 0-1 1v2a3 3 0 0 0 3 3h14a3 3 0 0 0 3-3v-2a1 1 0 0 0-1-1zm-1 3a1 1 0 0 1-1 1H5a1 1 0 0 1-1-1v-1h16z" fill="#8882d4"></path></svg>
